<svg width="60" height="60" viewBox="0 0 60 60" xmlns="http://www.w3.org/2000/svg">
  <g fill="none" fill-rule="evenodd">
    <circle fill="{{site.socialBtnsColor}}" cx="30" cy="30" r="30"/>
    <path d="M44.035 21.292c-1.033.46-2.142.77-3.31.907 1.19-.714 2.104-1.843 2.535-3.187-1.114.66-2.346 1.14-3.658 1.397-1.05-1.12-2.548-1.818-4.206-1.818-3.18 0-5.758 2.578-5.758 5.76 0 .45.05.89.148 1.312-4.787-.24-9.03-2.533-11.873-6.018-.494.85-.78 1.84-.78 2.896 0 2 1.018 3.76 2.563 4.795-.944-.03-1.832-.29-2.608-.72v.07c0 2.793 1.984 5.12 4.62 5.65-.484.13-.993.202-1.518.202-.372 0-.732-.037-1.083-.104.732 2.287 2.86 3.953 5.38 4-1.97 1.544-4.454 2.467-7.153 2.467-.465 0-.924-.027-1.374-.08 2.548 1.63 5.576 2.585 8.83 2.585 10.593 0 16.387-8.776 16.387-16.388 0-.25-.007-.5-.017-.746 1.126-.812 2.102-1.825 2.875-2.982z" fill-rule="nonzero" fill="#FFF"/>
  </g>
</svg>
