<svg width="61" height="60" viewBox="0 0 61 60" xmlns="http://www.w3.org/2000/svg">
  <g fill="none" fill-rule="evenodd">
    <circle fill="{{site.socialBtnsColor}}" cx="30.593" cy="30" r="30"/>
    <g stroke-linecap="round" stroke-linejoin="round">
      <path d="M31 18.5c-4.25 0-8.153 2.345-10.15 6.096-1.997 3.75-1.762 8.298.61 11.824L19.5 41.5l5.23-1.87c4.115 2.686 9.48 2.46 13.356-.56 3.875-3.02 5.403-8.17 3.803-12.816-1.6-4.645-5.977-7.76-10.89-7.754z" stroke="#FFF" fill="#FFF"/>
      <path d="M28.5 32.5c1.3 1.3 4.17 3 5.5 3 1.203.012 2.248-.824 2.5-2v-1s-1.23-.6-2-1-2 1-2 1c-.936-.305-1.79-.818-2.5-1.5-.682-.71-1.195-1.564-1.5-2.5 0 0 1.4-1.23 1-2-.4-.77-1-2-1-2h-1c-1.176.252-2.012 1.297-2 2.5 0 1.33 1.7 4.2 3 5.5z" stroke="#4845DF" fill="#4845DF"/>
    </g>
  </g>
</svg>
