<svg width="690" height="62" viewBox="0 0 690 62" xmlns="http://www.w3.org/2000/svg"><path d="M16.215 60V37.67h23.2V26.01h-23.2V12.395H41.74V.11H.983V60h15.232zM70.57.11H55.338v38.64c0 13.447 10.21 22.288 25.816 22.288 15.564 0 25.773-8.84 25.773-22.288V.11h-15.23v37.02c0 6.974-3.778 11.124-10.543 11.124-6.807 0-10.584-4.15-10.584-11.123V.11zM137.293 60V24.846h.332L163.15 60h12.036V.11h-14.443v34.822h-.332L135.01.11h-12.16V60h14.443zM191.11.11h24.32c18.096 0 28.72 10.5 28.72 29.592C244.15 48.835 233.486 60 215.43 60h-24.32V.11zm15.23 12.285v35.32h7.098c9.92 0 15.232-6.018 15.232-17.97 0-11.25-5.603-17.35-15.232-17.35h-7.097zM294.855 60l-3.777-13.157h-19.59L267.67 60h-15.524L272.276.11h18.635L311.04 60h-16.186zm-13.738-47.19l-6.682 23.076h13.655l-6.642-23.076h-.332zM389.386 60V.11h-17.6L356.68 38.584h-.332L341.24.11h-17.597V60h13.405V22.605h.333l14.776 36.772h8.716l14.817-36.772h.29V60h13.405zm56.97-12.285h-25.817V35.513h24.28V24.307h-24.28V12.395h25.815V.11h-41.048V60h41.048V47.715zM476.263 60V24.846h.332L502.12 60h12.037V.11h-14.443v34.822h-.332L473.982.11h-12.16V60h14.442zm82.91 0V12.395h16.52V.11h-48.23v12.285h16.52V60h15.19zm61.245 0l-3.778-13.157h-19.59L593.234 60H577.71L597.84.11h18.636L636.606 60h-16.187zm-13.74-47.19L600 35.886h13.654l-6.64-23.076h-.333zm82.538 34.905H664.44V.11h-15.232V60h40.01V47.715z" fill="#6e6cdd" fill-rule="evenodd"/></svg>
